# xmcd
#
# Track frame offsets:
#	150
#	14917
#	30943
#	46741
#	64775
#	80589
#	98760
#	117344
#	131339
#	147733
#
# Disc length: 2198 seconds
#
# Revision: 0
# Processed by: cddbd v1.5.1PL0 Copyright (c) Steve Scherf et al.
# Submitted via: dBpowerAMP V4.0
#
DISCID=8508940a
DTITLE=J. Michael Harter - Unexpected Change
DYEAR=2002
DGENRE=Country
TTITLE0=If You Never Loved Me
TTITLE1=Hard Call To Make
TTITLE2=Sugar and Gasoline
TTITLE3=On My Way Home
TTITLE4=Everything In Arizona
TTITLE5=Who You're Lovin' Now
TTITLE6=You're In The Right Place
TTITLE7=Losing You
TTITLE8=Somewhere In California
TTITLE9=The First Time
EXTD=Broken Bow Records
EXTT0=
EXTT1=
EXTT2=
EXTT3=
EXTT4=
EXTT5=
EXTT6=
EXTT7=
EXTT8=
EXTT9=
PLAYORDER=
